<svg width="188" height="166" viewBox="0 0 188 166" fill="none" xmlns="http://www.w3.org/2000/svg">
<g filter="url(#filter0_dd_1417_152908)">
<path d="M82.0413 97.1553C77.0059 94.2487 76.7193 89.3055 83.1056 85.6006C89.4817 81.8957 98.0173 82.039 103.053 84.9456C107.331 87.4121 109.367 92.6522 102.367 96.7255L102.111 96.8688C95.3563 100.789 86.3193 99.6321 82.0413 97.1553ZM141.964 64.364C112.376 47.2827 73.8434 46.9142 45.0743 63.6374C17.2979 79.7772 16.172 102.314 46.5173 119.835C55.0836 124.778 63.8853 127.982 71.7965 129.507L77.3948 121.728C69.985 120.203 62.8106 117.655 56.5164 114.022C32.844 100.359 33.8777 82.694 55.8921 69.8906C77.9065 57.0975 108.027 56.3709 131.945 70.1772C149.476 80.2991 152.843 92.5805 144.707 103.316C144.001 104.258 143.203 105.179 142.312 106.09C141.135 107.308 139.805 108.495 138.331 109.652C136.468 111.105 134.38 112.517 132.057 113.868C121.925 119.763 113.523 121.135 107.986 117.942C103.708 115.475 105.949 113.438 110.708 110.675L143.233 91.772L129.263 83.7072L121.874 86.5422C122.979 82.9806 122.703 78.6207 114.526 73.8923C101.681 66.4826 80.3526 67.3525 65.84 75.7857C51.4606 84.1473 50.0175 96.5003 63.6192 104.35C72.5539 109.508 80.5879 109.948 87.2403 109.58C86.0122 114.81 88.1717 118.515 95.3461 122.67C105.673 128.626 124.013 131.103 142.896 120.122C170.16 104.279 172.166 81.8138 141.954 64.364" fill="#200221"/>
<path d="M82.0413 76.3279C77.0059 73.4214 76.7193 68.4781 83.1056 64.7732C89.4919 61.0683 98.0173 61.2116 103.053 64.1182C107.331 66.5847 109.367 71.8248 102.367 75.8981L102.111 76.0414C95.3563 79.9612 86.3193 78.8047 82.0413 76.3279ZM141.964 43.5366C112.376 26.4553 73.8434 26.0868 45.0743 42.81C17.2979 58.9498 16.172 81.4861 46.5173 99.0076C55.0836 103.951 63.8853 107.154 71.7965 108.679L77.3948 100.901C69.985 99.376 62.8106 96.8276 56.5164 93.1944C32.844 79.5313 33.8777 61.8666 55.8921 49.0633C77.9065 36.2701 108.027 35.5435 131.945 49.3498C149.476 59.4717 152.843 71.7531 144.707 82.4891C144.001 83.4307 143.203 84.3518 142.312 85.2627C141.135 86.4806 139.805 87.6678 138.331 88.8243C136.468 90.2776 134.38 91.6899 132.057 93.0409C121.925 98.9359 113.523 100.307 107.986 97.1142C103.708 94.6477 105.949 92.611 110.708 89.8477L143.233 70.9446L129.263 62.8798L121.874 65.7148C122.979 62.1532 122.703 57.7933 114.526 53.065C101.681 45.6552 80.3526 46.5251 65.84 54.9583C51.4606 63.3199 50.0175 75.6729 63.6192 83.5228C72.5539 88.681 80.5879 89.1211 87.2403 88.7526C86.0122 93.9824 88.1717 97.6873 95.3461 101.843C105.673 107.799 124.013 110.276 142.896 99.2941C170.16 83.4512 172.166 60.9864 141.954 43.5366" fill="#D8BAE1"/>
<path d="M82.0442 76.3279C86.3222 78.7944 95.3694 79.9611 102.114 76.0414L102.37 75.8981C109.37 71.8248 107.333 66.595 103.055 64.1183C98.0201 61.2117 89.4846 61.0684 83.1085 64.7733C76.7325 68.4781 77.0089 73.4214 82.0442 76.3279Z" fill="#7D3986"/>
<path d="M163.989 83.5537V72.3367C163.712 82.0083 156.405 91.465 142.916 99.3046C124.023 110.286 105.683 107.809 95.3663 101.853C88.1817 97.708 86.0325 94.0031 87.2606 88.7631C80.6082 89.1213 72.5741 88.6914 63.6394 83.5332C57.5601 80.0228 54.5 75.6117 54.2339 71.0676V88.9166C54.1725 89.9503 54.2646 90.9635 54.4898 91.9767C55.1448 92.3861 55.8306 92.7955 56.5265 93.2048C62.8207 96.8381 69.9951 99.3865 77.4048 100.911L73.2599 106.663C78.2645 107.994 82.8598 108.106 86.9434 107.902V109.867C86.6773 114.093 89.1131 117.368 95.3562 120.971C105.683 126.927 124.023 129.404 142.906 118.423C156.988 110.235 164.337 96.9302 163.978 83.5639L163.989 83.5537Z" fill="#7D3986"/>
<path d="M87.139 112.323V93.256C86.8524 92.0279 86.8729 90.7383 87.139 89.3362V88.7733C80.507 89.1213 72.5139 88.6607 63.6304 83.5332C57.5511 80.0228 54.491 75.6117 54.2249 71.0676V88.9166C54.1635 89.9503 54.2556 90.9635 54.4808 91.9767C55.1358 92.3861 55.8215 92.7955 56.5174 93.2048C62.8116 96.8381 69.986 99.3865 77.3957 100.911L73.2508 106.663C78.2554 107.994 82.8507 108.106 86.9343 107.902V109.867C86.8831 110.726 86.9343 111.545 87.1185 112.343L87.139 112.323Z" fill="#7D3986"/>
<path d="M71.8069 108.679L77.4051 100.901V120.009L71.8069 127.787V108.679Z" fill="#7D3986"/>
<path d="M108.006 97.1144C113.542 100.318 121.945 98.9361 132.077 93.041C134.4 91.6901 136.488 90.2879 138.351 88.8244C139.825 87.6679 141.155 86.4807 142.332 85.2628C143.212 84.3519 144.01 83.4308 144.727 82.4893C152.863 71.7533 149.496 59.4719 131.964 49.35C108.046 35.5437 77.9263 36.2601 55.912 49.0634C40.3044 58.1312 35.2485 69.6552 42.0545 80.4628C44.5722 76.4714 48.666 72.6437 54.2847 69.1537C54.8578 64.1286 58.7879 59.0625 65.8497 54.9585C80.3622 46.5253 101.691 45.6553 114.535 53.0651C121.31 56.9747 122.661 60.6386 122.303 63.8011L121.884 65.7149L129.273 62.88L143.243 70.9448L110.718 89.8479C105.959 92.6112 103.717 94.6478 107.995 97.1144H108.006Z" fill="#5F2565"/>
<path d="M108.006 97.1142C113.543 100.318 121.945 98.9359 132.078 93.0408C134.401 91.6899 136.489 90.2877 138.351 88.8242C139.825 87.6677 141.155 86.4805 142.332 85.2626C142.65 84.9351 142.957 84.5974 143.254 84.2596V70.9343L110.728 89.8374C105.969 92.6007 103.728 94.6374 108.006 97.1039V97.1142Z" fill="#7D3986"/>
<path d="M32.8767 107.646V88.804C27.1249 83.1238 24.2491 77.4027 24.0137 70.2795V89.4794L24.0853 89.5409C23.5122 95.6508 27.1556 101.955 32.887 107.656L32.8767 107.646Z" fill="#5F2565"/>
<path d="M39.7813 94.6682C37.1306 92.6827 34.8381 90.7382 32.873 88.8038V107.646C43.2406 117.941 60.4141 126.242 71.8051 127.787V108.679C61.7855 106.847 49.1561 101.495 39.7813 94.6682Z" fill="#7D3986"/>
<path d="M163.988 83.5537V72.3367C163.712 81.9264 156.527 91.3114 143.253 99.1101V118.218C157.11 110.02 164.336 96.8176 163.988 83.5639V83.5537Z" fill="#5F2565"/>
</g>
<defs>
<filter id="filter0_dd_1417_152908" x="0" y="18.4933" width="188" height="147.013" filterUnits="userSpaceOnUse" color-interpolation-filters="sRGB">
<feFlood flood-opacity="0" result="BackgroundImageFix"/>
<feColorMatrix in="SourceAlpha" type="matrix" values="0 0 0 0 0 0 0 0 0 0 0 0 0 0 0 0 0 0 127 0" result="hardAlpha"/>
<feOffset dy="12"/>
<feGaussianBlur stdDeviation="12"/>
<feComposite in2="hardAlpha" operator="out"/>
<feColorMatrix type="matrix" values="0 0 0 0 0.12549 0 0 0 0 0.00784314 0 0 0 0 0.129412 0 0 0 0.25 0"/>
<feBlend mode="normal" in2="BackgroundImageFix" result="effect1_dropShadow_1417_152908"/>
<feColorMatrix in="SourceAlpha" type="matrix" values="0 0 0 0 0 0 0 0 0 0 0 0 0 0 0 0 0 0 127 0" result="hardAlpha"/>
<feOffset dy="2"/>
<feGaussianBlur stdDeviation="2"/>
<feComposite in2="hardAlpha" operator="out"/>
<feColorMatrix type="matrix" values="0 0 0 0 0.12549 0 0 0 0 0.00784314 0 0 0 0 0.129412 0 0 0 0.2 0"/>
<feBlend mode="normal" in2="effect1_dropShadow_1417_152908" result="effect2_dropShadow_1417_152908"/>
<feBlend mode="normal" in="SourceGraphic" in2="effect2_dropShadow_1417_152908" result="shape"/>
</filter>
</defs>
</svg>
